name C:\Users\antoi\Documents\MyRepositories\upper-imu-dc\Results\main_tracking\Case_70\ABD01_orientations_groundFrame.mot
datacolumns 13
datarows 36
range 6.31000000 6.66000000
endheader 
time	radius_imu_[0][0]	radius_imu_[0][1]	radius_imu_[0][2]	radius_imu_[1][0]	radius_imu_[1][1]	radius_imu_[1][2]	radius_imu_[2][0]	radius_imu_[2][1]	radius_imu_[2][2]	radius_imu_x	radius_imu_y	radius_imu_z	
          6.31000000	          0.99955109	         -0.02701296	         -0.01295853	         -0.01758995	         -0.87924282	          0.47604901	         -0.02425319	         -0.47560737	         -0.87932327	         -2.64539070	         -0.01295890	          0.02701852	
          6.32000000	          0.99940115	         -0.03045678	         -0.01642336	         -0.01912833	         -0.88178952	          0.47125509	         -0.02883486	         -0.47065873	         -0.88184404	         -2.65080733	         -0.01642410	          0.03046560	
          6.33000000	          0.99922789	         -0.03391291	         -0.01983786	         -0.02075178	         -0.88430124	          0.46645545	         -0.03336150	         -0.46568362	         -0.88432221	         -2.65620954	         -0.01983916	          0.03392609	
          6.34000000	          0.99903211	         -0.03737161	         -0.02319909	         -0.02245210	         -0.88677692	          0.46165204	         -0.03782510	         -0.46068434	         -0.88675769	         -2.66159587	         -0.02320117	          0.03739038	
          6.35000000	          0.99881480	         -0.04082236	         -0.02650527	         -0.02421971	         -0.88921526	          0.45684749	         -0.04221848	         -0.45566409	         -0.88915006	         -2.66696414	         -0.02650837	          0.04084807	
          6.36000000	          0.99857707	         -0.04425406	         -0.02975587	         -0.02604364	         -0.89161478	          0.45204514	         -0.04653561	         -0.45062696	         -0.89149861	         -2.67231136	         -0.02976026	          0.04428814	
          6.37000000	          0.99832017	         -0.04765509	         -0.03295188	         -0.02791160	         -0.89397388	          0.44724897	         -0.05077181	         -0.44557793	         -0.89380229	         -2.67763377	         -0.03295784	          0.04769907	
          6.38000000	          0.99804544	         -0.05101352	         -0.03609594	         -0.02981008	         -0.89629086	          0.44246362	         -0.05492409	         -0.44052277	         -0.89605972	         -2.68292691	         -0.03610379	          0.05106898	
          6.39000000	          0.99775427	         -0.05431728	         -0.03919249	         -0.03172448	         -0.89856404	          0.43769421	         -0.05899132	         -0.43546790	         -0.89826930	         -2.68818573	         -0.03920253	          0.05438585	
          6.40000000	          0.99744806	         -0.05755438	         -0.04224756	         -0.03363944	         -0.90079185	          0.43294623	         -0.06297421	         -0.43042019	         -0.90042918	         -2.69340475	         -0.04226014	          0.05763772	
          6.41000000	          0.99712822	         -0.06071312	         -0.04526848	         -0.03553926	         -0.90297289	          0.42822532	         -0.06687510	         -0.42538674	         -0.90253744	         -2.69857830	         -0.04528395	          0.06081290	
          6.42000000	          0.99679611	         -0.06378234	         -0.04826315	         -0.03740841	         -0.90510608	          0.42353701	         -0.07069746	         -0.42037460	         -0.90459221	         -2.70370082	         -0.04828191	          0.06390024	
          6.43000000	          0.99645309	         -0.06675162	         -0.05123934	         -0.03923213	         -0.90719069	          0.41888648	         -0.07444520	         -0.41539050	         -0.90659177	         -2.70876711	         -0.05126178	          0.06688929	
          6.44000000	          0.99610050	         -0.06961141	         -0.05420382	         -0.04099693	         -0.90922641	          0.41427839	         -0.07812205	         -0.41044072	         -0.90853473	         -2.71377260	         -0.05423040	          0.06977049	
          6.45000000	          0.99573969	         -0.07235314	         -0.05716192	         -0.04269083	         -0.91121333	          0.40971669	         -0.08173099	         -0.40553088	         -0.91042010	         -2.71871348	         -0.05719309	          0.07253523	
          6.46000000	          0.99537206	         -0.07496927	         -0.06011718	         -0.04430361	         -0.91315190	          0.40520463	         -0.08527401	         -0.40066596	         -0.91224730	         -2.72358677	         -0.06015345	          0.07517590	
          6.47000000	          0.99499897	         -0.07745339	         -0.06307151	         -0.04582679	         -0.91504292	          0.40074475	         -0.08875218	         -0.39585025	         -0.91401621	         -2.72839030	         -0.06311340	          0.07768603	
          6.48000000	          0.99462181	         -0.07980032	         -0.06602547	         -0.04725358	         -0.91688741	          0.39633896	         -0.09216590	         -0.39108743	         -0.91572707	         -2.73312264	         -0.06607354	          0.08006033	
          6.49000000	          0.99424187	         -0.08200620	         -0.06897884	         -0.04857881	         -0.91868659	          0.39198858	         -0.09551543	         -0.38638055	         -0.91738044	         -2.73778295	         -0.06903366	          0.08229486	
          6.50000000	          0.99386034	         -0.08406872	         -0.07193108	         -0.04979884	         -0.92044180	          0.38769443	         -0.09880135	         -0.38173203	         -0.91897712	         -2.74237100	         -0.07199325	          0.08438718	
          6.51000000	          0.99347818	         -0.08598724	         -0.07488187	         -0.05091160	         -0.92215449	          0.38345679	         -0.10202504	         -0.37714360	         -0.92051811	         -2.74688709	         -0.07495202	          0.08633656	
          6.52000000	          0.99309613	         -0.08776300	         -0.07783143	         -0.05191664	         -0.92382618	          0.37927544	         -0.10518906	         -0.37261622	         -0.92200456	         -2.75133203	         -0.07791022	          0.08814413	
          6.53000000	          0.99271459	         -0.08939918	         -0.08078080	         -0.05281512	         -0.92545845	          0.37514959	         -0.10829734	         -0.36815002	         -0.92343773	         -2.75570718	         -0.08086892	          0.08981300	
          6.54000000	          0.99233360	         -0.09090088	         -0.08373200	         -0.05360982	         -0.92705293	          0.37107795	         -0.11135531	         -0.36374427	         -0.92481896	         -2.76001442	         -0.08383015	          0.09134821	
          6.55000000	          0.99195287	         -0.09227501	         -0.08668807	         -0.05430500	         -0.92861125	          0.36705874	         -0.11436987	         -0.35939738	         -0.92614959	         -2.76425605	         -0.08679701	          0.09275665	
          6.56000000	          0.99157169	         -0.09353016	         -0.08965319	         -0.05490628	         -0.93013498	          0.36308983	         -0.11734942	         -0.35510707	         -0.92743090	         -2.76843468	         -0.08977373	          0.09404690	
          6.57000000	          0.99118897	         -0.09467635	         -0.09263272	         -0.05542043	         -0.93162562	          0.35916887	         -0.12030381	         -0.35087048	         -0.92866404	         -2.77255307	         -0.09276571	          0.09522905	
          6.58000000	          0.99080324	         -0.09572480	         -0.09563320	         -0.05585516	         -0.93308451	          0.35529354	         -0.12324426	         -0.34668438	         -0.92984988	         -2.77661387	         -0.09577957	          0.09631440	
          6.59000000	          0.99041265	         -0.09668772	         -0.09866234	         -0.05621887	         -0.93451277	          0.35146168	         -0.12618325	         -0.34254541	         -0.93098895	         -2.78061945	         -0.09882312	          0.09731530	
          6.60000000	          0.99001502	         -0.09757806	         -0.10172892	         -0.05652050	         -0.93591127	          0.34767158	         -0.12913436	         -0.33845031	         -0.93208138	         -2.78457164	         -0.10190521	          0.09824488	
          6.61000000	          0.98960783	         -0.09840925	         -0.10484256	         -0.05676937	         -0.93728057	          0.34392204	         -0.13211201	         -0.33439610	         -0.93312682	         -2.78847161	         -0.10503559	          0.09911682	
          6.62000000	          0.98918828	         -0.09919498	         -0.10801344	         -0.05697495	         -0.93862093	          0.34021258	         -0.13513106	         -0.33038024	         -0.93412445	         -2.79231972	         -0.10822458	          0.09994505	
          6.63000000	          0.98875337	         -0.09994881	         -0.11125197	         -0.05714671	         -0.93993233	          0.33654340	         -0.13820644	         -0.32640074	         -0.93507301	         -2.79611555	         -0.11148276	          0.10074348	
          6.64000000	          0.98829997	         -0.10068395	         -0.11456841	         -0.05729395	         -0.94121451	          0.33291539	         -0.14135269	         -0.32245619	         -0.93597084	         -2.79985789	         -0.11482054	          0.10152563	
          6.65000000	          0.98782484	         -0.10141292	         -0.11797247	         -0.05742561	         -0.94246696	          0.32933012	         -0.14458348	         -0.31854583	         -0.93681597	         -2.80354481	         -0.11824784	          0.10230445	
          6.66000000	          0.98732480	         -0.10214730	         -0.12147294	         -0.05755011	         -0.94368905	          0.32578974	         -0.14791123	         -0.31466950	         -0.93760619	         -2.80717378	         -0.12177368	          0.10309189	
